<?xml version="1.0" standalone="no"?>
<!DOCTYPE svg PUBLIC "-//W3C//DTD SVG 20010904//EN"
 "http://www.w3.org/TR/2001/REC-SVG-20010904/DTD/svg10.dtd">
<svg version="1.0" xmlns="http://www.w3.org/2000/svg"
 width="287.000000pt" height="287.000000pt" viewBox="0 0 287.000000 287.000000"
 preserveAspectRatio="xMidYMid meet">
<metadata>
Created by potrace 1.11, written by Peter Selinger 2001-2013
</metadata>
<g transform="translate(0.000000,287.000000) scale(0.100000,-0.100000)"
fill="#000000" stroke="none">
<path d="M1383 2811 c-44 -11 -77 -34 -106 -73 -13 -18 -165 -289 -337 -603
-210 -382 -324 -601 -347 -663 -113 -315 -74 -674 102 -957 57 -92 205 -250
291 -311 139 -99 265 -138 449 -138 148 0 216 14 332 69 94 44 149 82 235 163
184 174 306 414 338 664 14 112 13 185 -5 302 -28 189 -56 248 -405 878 -178
321 -335 596 -349 611 -14 16 -37 35 -51 42 -34 18 -108 26 -147 16z"/>
</g>
</svg>
